<?xml version="1.0" encoding="UTF-8" standalone="no"?>
<!DOCTYPE svg PUBLIC "-//W3C//DTD SVG 1.1//EN"
 "http://www.w3.org/Graphics/SVG/1.1/DTD/svg11.dtd">
<!-- Generated by graphviz version 2.46.0 (20210119.1425)
 -->
<!-- Title: dependencies Pages: 1 -->
<svg width="504pt" height="211pt"
 viewBox="0.00 0.00 504.00 211.00" xmlns="http://www.w3.org/2000/svg" xmlns:xlink="http://www.w3.org/1999/xlink">
<g id="graph0" class="graph" transform="scale(1 1) rotate(0) translate(4 207)">
<title>dependencies</title>
<polygon fill="white" stroke="transparent" points="-4,4 -4,-207 500,-207 500,4 -4,4"/>
<text text-anchor="start" x="227.01" y="-42.4" font-family="sans-serif" font-weight="bold" font-size="14.00">Legend</text>
<polygon fill="#ffffb3" stroke="transparent" points="14,-10 14,-30 34,-30 34,-10 14,-10"/>
<text text-anchor="start" x="37.63" y="-15.4" font-family="sans-serif" font-size="14.00"> &#160;Declarations</text>
<polygon fill="#8dd3c7" stroke="transparent" points="127,-10 127,-30 147,-30 147,-10 127,-10"/>
<text text-anchor="start" x="150.73" y="-15.4" font-family="sans-serif" font-size="14.00"> &#160;Module</text>
<polygon fill="#80b1d3" stroke="transparent" points="213,-10 213,-30 233,-30 233,-10 213,-10"/>
<text text-anchor="start" x="236.78" y="-15.4" font-family="sans-serif" font-size="14.00"> &#160;Bootstrap</text>
<polygon fill="#fdb462" stroke="transparent" points="310,-10 310,-30 330,-30 330,-10 310,-10"/>
<text text-anchor="start" x="333.67" y="-15.4" font-family="sans-serif" font-size="14.00"> &#160;Providers</text>
<polygon fill="#fb8072" stroke="transparent" points="406,-10 406,-30 426,-30 426,-10 406,-10"/>
<text text-anchor="start" x="429.73" y="-15.4" font-family="sans-serif" font-size="14.00"> &#160;Exports</text>
<g id="clust1" class="cluster">
<title>cluster_AppModule</title>
<polygon fill="none" stroke="black" stroke-dasharray="1,5" points="51,-70 51,-195 445,-195 445,-70 51,-70"/>
</g>
<g id="clust3" class="cluster">
<title>cluster_AppModule_imports</title>
<polygon fill="none" stroke="black" points="59,-78 59,-130 437,-130 437,-78 59,-78"/>
</g>
<!-- AuthModule -->
<g id="node1" class="node">
<title>AuthModule</title>
<polygon fill="#8dd3c7" stroke="black" points="428.55,-122 425.55,-126 404.55,-126 401.55,-122 341.45,-122 341.45,-86 428.55,-86 428.55,-122"/>
<text text-anchor="middle" x="385" y="-99.8" font-family="Times,serif" font-size="14.00">AuthModule</text>
</g>
<!-- AppModule -->
<g id="node4" class="node">
<title>AppModule</title>
<polygon fill="#8dd3c7" stroke="black" points="306.66,-187 303.66,-191 282.66,-191 279.66,-187 223.34,-187 223.34,-151 306.66,-151 306.66,-187"/>
<text text-anchor="middle" x="265" y="-164.8" font-family="Times,serif" font-size="14.00">AppModule</text>
</g>
<!-- AuthModule&#45;&gt;AppModule -->
<g id="edge1" class="edge">
<title>AuthModule&#45;&gt;AppModule</title>
<path fill="none" stroke="black" d="M385,-122.11C385,-141.34 385,-169 385,-169 385,-169 316.97,-169 316.97,-169"/>
<polygon fill="black" stroke="black" points="316.97,-165.5 306.97,-169 316.97,-172.5 316.97,-165.5"/>
</g>
<!-- EntrepriseModule -->
<g id="node2" class="node">
<title>EntrepriseModule</title>
<polygon fill="#8dd3c7" stroke="black" points="323.58,-122 320.58,-126 299.58,-126 296.58,-122 206.42,-122 206.42,-86 323.58,-86 323.58,-122"/>
<text text-anchor="middle" x="265" y="-99.8" font-family="Times,serif" font-size="14.00">EntrepriseModule</text>
</g>
<!-- EntrepriseModule&#45;&gt;AppModule -->
<g id="edge2" class="edge">
<title>EntrepriseModule&#45;&gt;AppModule</title>
<path fill="none" stroke="black" d="M265,-122.11C265,-122.11 265,-140.99 265,-140.99"/>
<polygon fill="black" stroke="black" points="261.5,-140.99 265,-150.99 268.5,-140.99 261.5,-140.99"/>
</g>
<!-- GestionPfeModule -->
<g id="node3" class="node">
<title>GestionPfeModule</title>
<polygon fill="#8dd3c7" stroke="black" points="188.75,-122 185.75,-126 164.75,-126 161.75,-122 67.25,-122 67.25,-86 188.75,-86 188.75,-122"/>
<text text-anchor="middle" x="128" y="-99.8" font-family="Times,serif" font-size="14.00">GestionPfeModule</text>
</g>
<!-- GestionPfeModule&#45;&gt;AppModule -->
<g id="edge3" class="edge">
<title>GestionPfeModule&#45;&gt;AppModule</title>
<path fill="none" stroke="black" d="M128,-122.11C128,-141.34 128,-169 128,-169 128,-169 213.15,-169 213.15,-169"/>
<polygon fill="black" stroke="black" points="213.15,-172.5 223.15,-169 213.15,-165.5 213.15,-172.5"/>
</g>
</g>
</svg>
