<?xml version="1.0" encoding="UTF-8" standalone="no"?>
<!DOCTYPE svg PUBLIC "-//W3C//DTD SVG 1.1//EN"
 "http://www.w3.org/Graphics/SVG/1.1/DTD/svg11.dtd">
<!-- Generated by graphviz version 2.46.0 (20210119.1425)
 -->
<!-- Title: dependencies Pages: 1 -->
<svg width="1317pt" height="211pt"
 viewBox="0.00 0.00 1317.00 211.00" xmlns="http://www.w3.org/2000/svg" xmlns:xlink="http://www.w3.org/1999/xlink">
<g id="graph0" class="graph" transform="scale(1 1) rotate(0) translate(4 207)">
<title>dependencies</title>
<polygon fill="white" stroke="transparent" points="-4,4 -4,-207 1313,-207 1313,4 -4,4"/>
<text text-anchor="start" x="633.51" y="-42.4" font-family="sans-serif" font-weight="bold" font-size="14.00">Legend</text>
<polygon fill="#ffffb3" stroke="transparent" points="420.5,-10 420.5,-30 440.5,-30 440.5,-10 420.5,-10"/>
<text text-anchor="start" x="444.13" y="-15.4" font-family="sans-serif" font-size="14.00"> &#160;Declarations</text>
<polygon fill="#8dd3c7" stroke="transparent" points="533.5,-10 533.5,-30 553.5,-30 553.5,-10 533.5,-10"/>
<text text-anchor="start" x="557.23" y="-15.4" font-family="sans-serif" font-size="14.00"> &#160;Module</text>
<polygon fill="#80b1d3" stroke="transparent" points="619.5,-10 619.5,-30 639.5,-30 639.5,-10 619.5,-10"/>
<text text-anchor="start" x="643.28" y="-15.4" font-family="sans-serif" font-size="14.00"> &#160;Bootstrap</text>
<polygon fill="#fdb462" stroke="transparent" points="716.5,-10 716.5,-30 736.5,-30 736.5,-10 716.5,-10"/>
<text text-anchor="start" x="740.17" y="-15.4" font-family="sans-serif" font-size="14.00"> &#160;Providers</text>
<polygon fill="#fb8072" stroke="transparent" points="812.5,-10 812.5,-30 832.5,-30 832.5,-10 812.5,-10"/>
<text text-anchor="start" x="836.23" y="-15.4" font-family="sans-serif" font-size="14.00"> &#160;Exports</text>
<g id="clust1" class="cluster">
<title>cluster_GestionPfeModule</title>
<polygon fill="none" stroke="black" stroke-dasharray="1,5" points="8,-70 8,-195 1301,-195 1301,-70 8,-70"/>
</g>
<g id="clust6" class="cluster">
<title>cluster_GestionPfeModule_providers</title>
<polygon fill="none" stroke="black" points="16,-78 16,-130 1293,-130 1293,-78 16,-78"/>
</g>
<!-- RapportPfeService -->
<g id="node1" class="node">
<title>RapportPfeService</title>
<ellipse fill="#fdb462" stroke="black" cx="1201" cy="-104" rx="83.95" ry="18"/>
<text text-anchor="middle" x="1201" y="-99.8" font-family="Times,serif" font-size="14.00">RapportPfeService</text>
</g>
<!-- GestionPfeModule -->
<g id="node7" class="node">
<title>GestionPfeModule</title>
<polygon fill="#8dd3c7" stroke="black" points="646.75,-187 643.75,-191 622.75,-191 619.75,-187 525.25,-187 525.25,-151 646.75,-151 646.75,-187"/>
<text text-anchor="middle" x="586" y="-164.8" font-family="Times,serif" font-size="14.00">GestionPfeModule</text>
</g>
<!-- RapportPfeService&#45;&gt;GestionPfeModule -->
<g id="edge1" class="edge">
<title>RapportPfeService&#45;&gt;GestionPfeModule</title>
<path fill="none" stroke="black" d="M1201,-122.28C1201,-143.32 1201,-175 1201,-175 1201,-175 656.93,-175 656.93,-175"/>
<polygon fill="black" stroke="black" points="656.93,-171.5 646.93,-175 656.93,-178.5 656.93,-171.5"/>
</g>
<!-- SalleSoutenanceService -->
<g id="node2" class="node">
<title>SalleSoutenanceService</title>
<ellipse fill="#fdb462" stroke="black" cx="995" cy="-104" rx="103.63" ry="18"/>
<text text-anchor="middle" x="995" y="-99.8" font-family="Times,serif" font-size="14.00">SalleSoutenanceService</text>
</g>
<!-- SalleSoutenanceService&#45;&gt;GestionPfeModule -->
<g id="edge2" class="edge">
<title>SalleSoutenanceService&#45;&gt;GestionPfeModule</title>
<path fill="none" stroke="black" d="M995,-122.02C995,-139.37 995,-163 995,-163 995,-163 656.79,-163 656.79,-163"/>
<polygon fill="black" stroke="black" points="656.79,-159.5 646.79,-163 656.79,-166.5 656.79,-159.5"/>
</g>
<!-- SessionHoraireSalleUniqueConstraint -->
<g id="node3" class="node">
<title>SessionHoraireSalleUniqueConstraint</title>
<ellipse fill="#fdb462" stroke="black" cx="715" cy="-104" rx="158" ry="18"/>
<text text-anchor="middle" x="715" y="-99.8" font-family="Times,serif" font-size="14.00">SessionHoraireSalleUniqueConstraint</text>
</g>
<!-- SessionHoraireSalleUniqueConstraint&#45;&gt;GestionPfeModule -->
<g id="edge3" class="edge">
<title>SessionHoraireSalleUniqueConstraint&#45;&gt;GestionPfeModule</title>
<path fill="none" stroke="black" d="M601.94,-116.84C601.94,-116.84 601.94,-140.52 601.94,-140.52"/>
<polygon fill="black" stroke="black" points="598.44,-140.52 601.94,-150.52 605.44,-140.52 598.44,-140.52"/>
</g>
<!-- SessionPfeService -->
<g id="node4" class="node">
<title>SessionPfeService</title>
<ellipse fill="#fdb462" stroke="black" cx="457" cy="-104" rx="82.24" ry="18"/>
<text text-anchor="middle" x="457" y="-99.8" font-family="Times,serif" font-size="14.00">SessionPfeService</text>
</g>
<!-- SessionPfeService&#45;&gt;GestionPfeModule -->
<g id="edge4" class="edge">
<title>SessionPfeService&#45;&gt;GestionPfeModule</title>
<path fill="none" stroke="black" d="M532.25,-111.46C532.25,-111.46 532.25,-140.84 532.25,-140.84"/>
<polygon fill="black" stroke="black" points="528.75,-140.84 532.25,-150.84 535.75,-140.84 528.75,-140.84"/>
</g>
<!-- SoutenanceService -->
<g id="node5" class="node">
<title>SoutenanceService</title>
<ellipse fill="#fdb462" stroke="black" cx="272" cy="-104" rx="84.51" ry="18"/>
<text text-anchor="middle" x="272" y="-99.8" font-family="Times,serif" font-size="14.00">SoutenanceService</text>
</g>
<!-- SoutenanceService&#45;&gt;GestionPfeModule -->
<g id="edge5" class="edge">
<title>SoutenanceService&#45;&gt;GestionPfeModule</title>
<path fill="none" stroke="black" d="M272,-122.02C272,-139.37 272,-163 272,-163 272,-163 515.09,-163 515.09,-163"/>
<polygon fill="black" stroke="black" points="515.09,-166.5 525.09,-163 515.09,-159.5 515.09,-166.5"/>
</g>
<!-- SujetPfeService -->
<g id="node6" class="node">
<title>SujetPfeService</title>
<ellipse fill="#fdb462" stroke="black" cx="97" cy="-104" rx="72.93" ry="18"/>
<text text-anchor="middle" x="97" y="-99.8" font-family="Times,serif" font-size="14.00">SujetPfeService</text>
</g>
<!-- SujetPfeService&#45;&gt;GestionPfeModule -->
<g id="edge6" class="edge">
<title>SujetPfeService&#45;&gt;GestionPfeModule</title>
<path fill="none" stroke="black" d="M97,-122.28C97,-143.32 97,-175 97,-175 97,-175 515.06,-175 515.06,-175"/>
<polygon fill="black" stroke="black" points="515.06,-178.5 525.06,-175 515.06,-171.5 515.06,-178.5"/>
</g>
</g>
</svg>
