<?xml version="1.0" encoding="UTF-8" standalone="no"?>
<!DOCTYPE svg PUBLIC "-//W3C//DTD SVG 1.1//EN"
 "http://www.w3.org/Graphics/SVG/1.1/DTD/svg11.dtd">
<!-- Generated by graphviz version 2.46.0 (20210119.1425)
 -->
<!-- Title: dependencies Pages: 1 -->
<svg width="996pt" height="284pt"
 viewBox="0.00 0.00 996.00 284.00" xmlns="http://www.w3.org/2000/svg" xmlns:xlink="http://www.w3.org/1999/xlink">
<g id="graph0" class="graph" transform="scale(1 1) rotate(0) translate(4 280)">
<title>dependencies</title>
<polygon fill="white" stroke="transparent" points="-4,4 -4,-280 992,-280 992,4 -4,4"/>
<text text-anchor="start" x="473.01" y="-42.4" font-family="sans-serif" font-weight="bold" font-size="14.00">Legend</text>
<polygon fill="#ffffb3" stroke="transparent" points="260,-10 260,-30 280,-30 280,-10 260,-10"/>
<text text-anchor="start" x="283.63" y="-15.4" font-family="sans-serif" font-size="14.00"> &#160;Declarations</text>
<polygon fill="#8dd3c7" stroke="transparent" points="373,-10 373,-30 393,-30 393,-10 373,-10"/>
<text text-anchor="start" x="396.73" y="-15.4" font-family="sans-serif" font-size="14.00"> &#160;Module</text>
<polygon fill="#80b1d3" stroke="transparent" points="459,-10 459,-30 479,-30 479,-10 459,-10"/>
<text text-anchor="start" x="482.78" y="-15.4" font-family="sans-serif" font-size="14.00"> &#160;Bootstrap</text>
<polygon fill="#fdb462" stroke="transparent" points="556,-10 556,-30 576,-30 576,-10 556,-10"/>
<text text-anchor="start" x="579.67" y="-15.4" font-family="sans-serif" font-size="14.00"> &#160;Providers</text>
<polygon fill="#fb8072" stroke="transparent" points="652,-10 652,-30 672,-30 672,-10 652,-10"/>
<text text-anchor="start" x="675.73" y="-15.4" font-family="sans-serif" font-size="14.00"> &#160;Exports</text>
<g id="clust1" class="cluster">
<title>cluster_AuthModule</title>
<polygon fill="none" stroke="black" stroke-dasharray="1,5" points="8,-70 8,-268 980,-268 980,-70 8,-70"/>
</g>
<g id="clust4" class="cluster">
<title>cluster_AuthModule_exports</title>
<polygon fill="none" stroke="black" points="347,-208 347,-260 601,-260 601,-208 347,-208"/>
</g>
<g id="clust6" class="cluster">
<title>cluster_AuthModule_providers</title>
<polygon fill="none" stroke="black" points="162,-78 162,-130 972,-130 972,-78 162,-78"/>
</g>
<g id="clust3" class="cluster">
<title>cluster_AuthModule_imports</title>
<polygon fill="none" stroke="black" points="16,-78 16,-130 154,-130 154,-78 16,-78"/>
</g>
<!-- GestionPfeModule -->
<g id="node1" class="node">
<title>GestionPfeModule</title>
<polygon fill="#8dd3c7" stroke="black" points="145.75,-122 142.75,-126 121.75,-126 118.75,-122 24.25,-122 24.25,-86 145.75,-86 145.75,-122"/>
<text text-anchor="middle" x="85" y="-99.8" font-family="Times,serif" font-size="14.00">GestionPfeModule</text>
</g>
<!-- AuthModule -->
<g id="node2" class="node">
<title>AuthModule</title>
<polygon fill="#8dd3c7" stroke="black" points="505.55,-187 502.55,-191 481.55,-191 478.55,-187 418.45,-187 418.45,-151 505.55,-151 505.55,-187"/>
<text text-anchor="middle" x="462" y="-164.8" font-family="Times,serif" font-size="14.00">AuthModule</text>
</g>
<!-- GestionPfeModule&#45;&gt;AuthModule -->
<g id="edge1" class="edge">
<title>GestionPfeModule&#45;&gt;AuthModule</title>
<path fill="none" stroke="black" d="M85,-122.28C85,-143.32 85,-175 85,-175 85,-175 408.39,-175 408.39,-175"/>
<polygon fill="black" stroke="black" points="408.39,-178.5 418.39,-175 408.38,-171.5 408.39,-178.5"/>
</g>
<!-- PassportJwtStrategy  -->
<g id="node3" class="node">
<title>PassportJwtStrategy </title>
<polygon fill="#fb8072" stroke="black" points="592.53,-252 459.47,-252 459.47,-216 592.53,-216 592.53,-252"/>
<text text-anchor="middle" x="526" y="-229.8" font-family="Times,serif" font-size="14.00">PassportJwtStrategy </text>
</g>
<!-- AuthModule&#45;&gt;PassportJwtStrategy  -->
<g id="edge2" class="edge">
<title>AuthModule&#45;&gt;PassportJwtStrategy </title>
<path fill="none" stroke="black" stroke-dasharray="5,2" d="M482.63,-187.11C482.63,-187.11 482.63,-205.99 482.63,-205.99"/>
<polygon fill="black" stroke="black" points="479.13,-205.99 482.63,-215.99 486.13,-205.99 479.13,-205.99"/>
</g>
<!-- RolesGuard  -->
<g id="node4" class="node">
<title>RolesGuard </title>
<polygon fill="#fb8072" stroke="black" points="441.37,-252 354.63,-252 354.63,-216 441.37,-216 441.37,-252"/>
<text text-anchor="middle" x="398" y="-229.8" font-family="Times,serif" font-size="14.00">RolesGuard </text>
</g>
<!-- AuthModule&#45;&gt;RolesGuard  -->
<g id="edge3" class="edge">
<title>AuthModule&#45;&gt;RolesGuard </title>
<path fill="none" stroke="black" stroke-dasharray="5,2" d="M429.71,-187.11C429.71,-187.11 429.71,-205.99 429.71,-205.99"/>
<polygon fill="black" stroke="black" points="426.21,-205.99 429.71,-215.99 433.21,-205.99 426.21,-205.99"/>
</g>
<!-- AdminAuthService -->
<g id="node5" class="node">
<title>AdminAuthService</title>
<ellipse fill="#fdb462" stroke="black" cx="878" cy="-104" rx="86.26" ry="18"/>
<text text-anchor="middle" x="878" y="-99.8" font-family="Times,serif" font-size="14.00">AdminAuthService</text>
</g>
<!-- AdminAuthService&#45;&gt;AuthModule -->
<g id="edge4" class="edge">
<title>AdminAuthService&#45;&gt;AuthModule</title>
<path fill="none" stroke="black" d="M878,-122.28C878,-143.32 878,-175 878,-175 878,-175 515.73,-175 515.73,-175"/>
<polygon fill="black" stroke="black" points="515.73,-171.5 505.73,-175 515.73,-178.5 515.73,-171.5"/>
</g>
<!-- EntrepriseAuthService -->
<g id="node6" class="node">
<title>EntrepriseAuthService</title>
<ellipse fill="#fdb462" stroke="black" cx="675" cy="-104" rx="98.97" ry="18"/>
<text text-anchor="middle" x="675" y="-99.8" font-family="Times,serif" font-size="14.00">EntrepriseAuthService</text>
</g>
<!-- EntrepriseAuthService&#45;&gt;AuthModule -->
<g id="edge5" class="edge">
<title>EntrepriseAuthService&#45;&gt;AuthModule</title>
<path fill="none" stroke="black" d="M584.27,-111.23C584.27,-126.99 584.27,-163 584.27,-163 584.27,-163 515.8,-163 515.8,-163"/>
<polygon fill="black" stroke="black" points="515.8,-159.5 505.8,-163 515.8,-166.5 515.8,-159.5"/>
</g>
<!-- ProfessorAuthService -->
<g id="node7" class="node">
<title>ProfessorAuthService</title>
<ellipse fill="#fdb462" stroke="black" cx="462" cy="-104" rx="95.54" ry="18"/>
<text text-anchor="middle" x="462" y="-99.8" font-family="Times,serif" font-size="14.00">ProfessorAuthService</text>
</g>
<!-- ProfessorAuthService&#45;&gt;AuthModule -->
<g id="edge6" class="edge">
<title>ProfessorAuthService&#45;&gt;AuthModule</title>
<path fill="none" stroke="black" d="M462,-122.11C462,-122.11 462,-140.99 462,-140.99"/>
<polygon fill="black" stroke="black" points="458.5,-140.99 462,-150.99 465.5,-140.99 458.5,-140.99"/>
</g>
<!-- StudentAuthService -->
<g id="node8" class="node">
<title>StudentAuthService</title>
<ellipse fill="#fdb462" stroke="black" cx="259" cy="-104" rx="88.62" ry="18"/>
<text text-anchor="middle" x="259" y="-99.8" font-family="Times,serif" font-size="14.00">StudentAuthService</text>
</g>
<!-- StudentAuthService&#45;&gt;AuthModule -->
<g id="edge7" class="edge">
<title>StudentAuthService&#45;&gt;AuthModule</title>
<path fill="none" stroke="black" d="M259,-122.02C259,-139.37 259,-163 259,-163 259,-163 408.45,-163 408.45,-163"/>
<polygon fill="black" stroke="black" points="408.45,-166.5 418.45,-163 408.45,-159.5 408.45,-166.5"/>
</g>
</g>
</svg>
