<?xml version="1.0" encoding="UTF-8" standalone="no"?>
<!DOCTYPE svg PUBLIC "-//W3C//DTD SVG 1.1//EN"
 "http://www.w3.org/Graphics/SVG/1.1/DTD/svg11.dtd">
<!-- Generated by graphviz version 2.46.0 (20210119.1425)
 -->
<!-- Title: dependencies Pages: 1 -->
<svg width="1971pt" height="352pt"
 viewBox="0.00 0.00 1971.00 352.00" xmlns="http://www.w3.org/2000/svg" xmlns:xlink="http://www.w3.org/1999/xlink">
<g id="graph0" class="graph" transform="scale(1 1) rotate(0) translate(4 348)">
<title>dependencies</title>
<polygon fill="white" stroke="transparent" points="-4,4 -4,-348 1967,-348 1967,4 -4,4"/>
<text text-anchor="start" x="960.51" y="-42.4" font-family="sans-serif" font-weight="bold" font-size="14.00">Legend</text>
<polygon fill="#ffffb3" stroke="transparent" points="747.5,-10 747.5,-30 767.5,-30 767.5,-10 747.5,-10"/>
<text text-anchor="start" x="771.13" y="-15.4" font-family="sans-serif" font-size="14.00"> &#160;Declarations</text>
<polygon fill="#8dd3c7" stroke="transparent" points="860.5,-10 860.5,-30 880.5,-30 880.5,-10 860.5,-10"/>
<text text-anchor="start" x="884.23" y="-15.4" font-family="sans-serif" font-size="14.00"> &#160;Module</text>
<polygon fill="#80b1d3" stroke="transparent" points="946.5,-10 946.5,-30 966.5,-30 966.5,-10 946.5,-10"/>
<text text-anchor="start" x="970.28" y="-15.4" font-family="sans-serif" font-size="14.00"> &#160;Bootstrap</text>
<polygon fill="#fdb462" stroke="transparent" points="1043.5,-10 1043.5,-30 1063.5,-30 1063.5,-10 1043.5,-10"/>
<text text-anchor="start" x="1067.17" y="-15.4" font-family="sans-serif" font-size="14.00"> &#160;Providers</text>
<polygon fill="#fb8072" stroke="transparent" points="1139.5,-10 1139.5,-30 1159.5,-30 1159.5,-10 1139.5,-10"/>
<text text-anchor="start" x="1163.23" y="-15.4" font-family="sans-serif" font-size="14.00"> &#160;Exports</text>
<g id="clust1" class="cluster">
<title>cluster_AppModule</title>
<polygon fill="none" stroke="black" stroke-dasharray="1,5" points="570,-146 570,-336 859,-336 859,-146 570,-146"/>
</g>
<g id="clust3" class="cluster">
<title>cluster_AppModule_imports</title>
<polygon fill="none" stroke="black" points="578,-154 578,-271 851,-271 851,-154 578,-154"/>
</g>
<g id="clust7" class="cluster">
<title>cluster_AuthModule</title>
<polygon fill="none" stroke="black" stroke-dasharray="1,5" points="867,-146 867,-214 1955,-214 1955,-146 867,-146"/>
</g>
<g id="clust10" class="cluster">
<title>cluster_AuthModule_exports</title>
<polygon fill="none" stroke="black" points="1693,-154 1693,-206 1947,-206 1947,-154 1693,-154"/>
</g>
<g id="clust12" class="cluster">
<title>cluster_AuthModule_providers</title>
<polygon fill="none" stroke="black" points="875,-154 875,-206 1685,-206 1685,-154 875,-154"/>
</g>
<g id="clust13" class="cluster">
<title>cluster_EntrepriseModule</title>
<polygon fill="none" stroke="black" stroke-dasharray="1,5" points="8,-70 8,-138 418,-138 418,-70 8,-70"/>
</g>
<g id="clust18" class="cluster">
<title>cluster_EntrepriseModule_providers</title>
<polygon fill="none" stroke="black" points="16,-78 16,-130 410,-130 410,-78 16,-78"/>
</g>
<g id="clust19" class="cluster">
<title>cluster_GestionPfeModule</title>
<polygon fill="none" stroke="black" stroke-dasharray="1,5" points="426,-70 426,-138 1719,-138 1719,-70 426,-70"/>
</g>
<g id="clust24" class="cluster">
<title>cluster_GestionPfeModule_providers</title>
<polygon fill="none" stroke="black" points="434,-78 434,-130 1711,-130 1711,-78 434,-78"/>
</g>
<!-- AuthModule -->
<g id="node1" class="node">
<title>AuthModule</title>
<polygon fill="#8dd3c7" stroke="black" points="842.55,-263 839.55,-267 818.55,-267 815.55,-263 755.45,-263 755.45,-227 842.55,-227 842.55,-263"/>
<text text-anchor="middle" x="799" y="-240.8" font-family="Times,serif" font-size="14.00">AuthModule</text>
</g>
<!-- AppModule -->
<g id="node4" class="node">
<title>AppModule</title>
<polygon fill="#8dd3c7" stroke="black" points="777.66,-328 774.66,-332 753.66,-332 750.66,-328 694.34,-328 694.34,-292 777.66,-292 777.66,-328"/>
<text text-anchor="middle" x="736" y="-305.8" font-family="Times,serif" font-size="14.00">AppModule</text>
</g>
<!-- AuthModule&#45;&gt;AppModule -->
<g id="edge1" class="edge">
<title>AuthModule&#45;&gt;AppModule</title>
<path fill="none" stroke="black" d="M766.53,-263.11C766.53,-263.11 766.53,-281.99 766.53,-281.99"/>
<polygon fill="black" stroke="black" points="763.03,-281.99 766.53,-291.99 770.03,-281.99 763.03,-281.99"/>
</g>
<!-- PassportJwtStrategy  -->
<g id="node5" class="node">
<title>PassportJwtStrategy </title>
<polygon fill="#fb8072" stroke="black" points="1938.53,-198 1805.47,-198 1805.47,-162 1938.53,-162 1938.53,-198"/>
<text text-anchor="middle" x="1872" y="-175.8" font-family="Times,serif" font-size="14.00">PassportJwtStrategy </text>
</g>
<!-- AuthModule&#45;&gt;PassportJwtStrategy  -->
<g id="edge5" class="edge">
<title>AuthModule&#45;&gt;PassportJwtStrategy </title>
<path fill="none" stroke="black" stroke-dasharray="5,2" d="M842.73,-258C1044.05,-258 1872,-258 1872,-258 1872,-258 1872,-208.09 1872,-208.09"/>
<polygon fill="black" stroke="black" points="1875.5,-208.09 1872,-198.09 1868.5,-208.09 1875.5,-208.09"/>
</g>
<!-- RolesGuard  -->
<g id="node6" class="node">
<title>RolesGuard </title>
<polygon fill="#fb8072" stroke="black" points="1787.37,-198 1700.63,-198 1700.63,-162 1787.37,-162 1787.37,-198"/>
<text text-anchor="middle" x="1744" y="-175.8" font-family="Times,serif" font-size="14.00">RolesGuard </text>
</g>
<!-- AuthModule&#45;&gt;RolesGuard  -->
<g id="edge6" class="edge">
<title>AuthModule&#45;&gt;RolesGuard </title>
<path fill="none" stroke="black" stroke-dasharray="5,2" d="M842.68,-253C1028.54,-253 1744,-253 1744,-253 1744,-253 1744,-208.04 1744,-208.04"/>
<polygon fill="black" stroke="black" points="1747.5,-208.04 1744,-198.04 1740.5,-208.04 1747.5,-208.04"/>
</g>
<!-- EntrepriseModule -->
<g id="node2" class="node">
<title>EntrepriseModule</title>
<polygon fill="#8dd3c7" stroke="black" points="703.58,-198 700.58,-202 679.58,-202 676.58,-198 586.42,-198 586.42,-162 703.58,-162 703.58,-198"/>
<text text-anchor="middle" x="645" y="-175.8" font-family="Times,serif" font-size="14.00">EntrepriseModule</text>
</g>
<!-- EntrepriseModule&#45;&gt;AppModule -->
<g id="edge2" class="edge">
<title>EntrepriseModule&#45;&gt;AppModule</title>
<path fill="none" stroke="black" d="M698.86,-198.08C698.86,-198.08 698.86,-281.66 698.86,-281.66"/>
<polygon fill="black" stroke="black" points="695.36,-281.66 698.86,-291.66 702.36,-281.66 695.36,-281.66"/>
</g>
<!-- GestionPfeModule -->
<g id="node3" class="node">
<title>GestionPfeModule</title>
<polygon fill="#8dd3c7" stroke="black" points="842.75,-198 839.75,-202 818.75,-202 815.75,-198 721.25,-198 721.25,-162 842.75,-162 842.75,-198"/>
<text text-anchor="middle" x="782" y="-175.8" font-family="Times,serif" font-size="14.00">GestionPfeModule</text>
</g>
<!-- GestionPfeModule&#45;&gt;AuthModule -->
<g id="edge4" class="edge">
<title>GestionPfeModule&#45;&gt;AuthModule</title>
<path fill="none" stroke="black" d="M799,-198.11C799,-198.11 799,-216.99 799,-216.99"/>
<polygon fill="black" stroke="black" points="795.5,-216.99 799,-226.99 802.5,-216.99 795.5,-216.99"/>
</g>
<!-- GestionPfeModule&#45;&gt;AppModule -->
<g id="edge3" class="edge">
<title>GestionPfeModule&#45;&gt;AppModule</title>
<path fill="none" stroke="black" d="M738.17,-198.08C738.17,-198.08 738.17,-281.66 738.17,-281.66"/>
<polygon fill="black" stroke="black" points="734.67,-281.66 738.17,-291.66 741.67,-281.66 734.67,-281.66"/>
</g>
<!-- AdminAuthService -->
<g id="node7" class="node">
<title>AdminAuthService</title>
<ellipse fill="#fdb462" stroke="black" cx="1591" cy="-180" rx="86.26" ry="18"/>
<text text-anchor="middle" x="1591" y="-175.8" font-family="Times,serif" font-size="14.00">AdminAuthService</text>
</g>
<!-- AdminAuthService&#45;&gt;AuthModule -->
<g id="edge7" class="edge">
<title>AdminAuthService&#45;&gt;AuthModule</title>
<path fill="none" stroke="black" d="M1591,-198.22C1591,-218.37 1591,-248 1591,-248 1591,-248 852.71,-248 852.71,-248"/>
<polygon fill="black" stroke="black" points="852.71,-244.5 842.71,-248 852.71,-251.5 852.71,-244.5"/>
</g>
<!-- EntrepriseAuthService -->
<g id="node8" class="node">
<title>EntrepriseAuthService</title>
<ellipse fill="#fdb462" stroke="black" cx="1388" cy="-180" rx="98.97" ry="18"/>
<text text-anchor="middle" x="1388" y="-175.8" font-family="Times,serif" font-size="14.00">EntrepriseAuthService</text>
</g>
<!-- EntrepriseAuthService&#45;&gt;AuthModule -->
<g id="edge8" class="edge">
<title>EntrepriseAuthService&#45;&gt;AuthModule</title>
<path fill="none" stroke="black" d="M1388,-198.22C1388,-216.83 1388,-243 1388,-243 1388,-243 852.79,-243 852.79,-243"/>
<polygon fill="black" stroke="black" points="852.79,-239.5 842.79,-243 852.79,-246.5 852.79,-239.5"/>
</g>
<!-- ProfessorAuthService -->
<g id="node9" class="node">
<title>ProfessorAuthService</title>
<ellipse fill="#fdb462" stroke="black" cx="1175" cy="-180" rx="95.54" ry="18"/>
<text text-anchor="middle" x="1175" y="-175.8" font-family="Times,serif" font-size="14.00">ProfessorAuthService</text>
</g>
<!-- ProfessorAuthService&#45;&gt;AuthModule -->
<g id="edge9" class="edge">
<title>ProfessorAuthService&#45;&gt;AuthModule</title>
<path fill="none" stroke="black" d="M1175,-198.03C1175,-215.06 1175,-238 1175,-238 1175,-238 852.87,-238 852.87,-238"/>
<polygon fill="black" stroke="black" points="852.87,-234.5 842.87,-238 852.87,-241.5 852.87,-234.5"/>
</g>
<!-- StudentAuthService -->
<g id="node10" class="node">
<title>StudentAuthService</title>
<ellipse fill="#fdb462" stroke="black" cx="972" cy="-180" rx="88.62" ry="18"/>
<text text-anchor="middle" x="972" y="-175.8" font-family="Times,serif" font-size="14.00">StudentAuthService</text>
</g>
<!-- StudentAuthService&#45;&gt;AuthModule -->
<g id="edge10" class="edge">
<title>StudentAuthService&#45;&gt;AuthModule</title>
<path fill="none" stroke="black" d="M972,-198.24C972,-213.57 972,-233 972,-233 972,-233 852.66,-233 852.66,-233"/>
<polygon fill="black" stroke="black" points="852.66,-229.5 842.66,-233 852.66,-236.5 852.66,-229.5"/>
</g>
<!-- EntrepriseService -->
<g id="node11" class="node">
<title>EntrepriseService</title>
<ellipse fill="#fdb462" stroke="black" cx="322" cy="-104" rx="79.85" ry="18"/>
<text text-anchor="middle" x="322" y="-99.8" font-family="Times,serif" font-size="14.00">EntrepriseService</text>
</g>
<!-- EntrepriseService&#45;&gt;EntrepriseModule -->
<g id="edge11" class="edge">
<title>EntrepriseService&#45;&gt;EntrepriseModule</title>
<path fill="none" stroke="black" d="M322,-122.03C322,-142.77 322,-174 322,-174 322,-174 576.13,-174 576.13,-174"/>
<polygon fill="black" stroke="black" points="576.13,-177.5 586.13,-174 576.13,-170.5 576.13,-177.5"/>
</g>
<!-- InternshipOfferService -->
<g id="node12" class="node">
<title>InternshipOfferService</title>
<ellipse fill="#fdb462" stroke="black" cx="124" cy="-104" rx="100.09" ry="18"/>
<text text-anchor="middle" x="124" y="-99.8" font-family="Times,serif" font-size="14.00">InternshipOfferService</text>
</g>
<!-- InternshipOfferService&#45;&gt;EntrepriseModule -->
<g id="edge12" class="edge">
<title>InternshipOfferService&#45;&gt;EntrepriseModule</title>
<path fill="none" stroke="black" d="M124,-122.2C124,-146.36 124,-186 124,-186 124,-186 576.25,-186 576.25,-186"/>
<polygon fill="black" stroke="black" points="576.25,-189.5 586.25,-186 576.25,-182.5 576.25,-189.5"/>
</g>
<!-- RapportPfeService -->
<g id="node13" class="node">
<title>RapportPfeService</title>
<ellipse fill="#fdb462" stroke="black" cx="1619" cy="-104" rx="83.95" ry="18"/>
<text text-anchor="middle" x="1619" y="-99.8" font-family="Times,serif" font-size="14.00">RapportPfeService</text>
</g>
<!-- RapportPfeService&#45;&gt;GestionPfeModule -->
<g id="edge13" class="edge">
<title>RapportPfeService&#45;&gt;GestionPfeModule</title>
<path fill="none" stroke="black" d="M1606.08,-122.06C1606.08,-133.44 1606.08,-146 1606.08,-146 1606.08,-146 832.83,-146 832.83,-146 832.83,-146 832.83,-151.81 832.83,-151.81"/>
<polygon fill="black" stroke="black" points="829.33,-151.81 832.83,-161.81 836.33,-151.81 829.33,-151.81"/>
</g>
<!-- SalleSoutenanceService -->
<g id="node14" class="node">
<title>SalleSoutenanceService</title>
<ellipse fill="#fdb462" stroke="black" cx="1413" cy="-104" rx="103.63" ry="18"/>
<text text-anchor="middle" x="1413" y="-99.8" font-family="Times,serif" font-size="14.00">SalleSoutenanceService</text>
</g>
<!-- SalleSoutenanceService&#45;&gt;GestionPfeModule -->
<g id="edge14" class="edge">
<title>SalleSoutenanceService&#45;&gt;GestionPfeModule</title>
<path fill="none" stroke="black" d="M1398.09,-122.19C1398.09,-130.28 1398.09,-138 1398.09,-138 1398.09,-138 822.78,-138 822.78,-138 822.78,-138 822.78,-151.94 822.78,-151.94"/>
<polygon fill="black" stroke="black" points="819.28,-151.94 822.78,-161.94 826.28,-151.94 819.28,-151.94"/>
</g>
<!-- SessionHoraireSalleUniqueConstraint -->
<g id="node15" class="node">
<title>SessionHoraireSalleUniqueConstraint</title>
<ellipse fill="#fdb462" stroke="black" cx="1133" cy="-104" rx="158" ry="18"/>
<text text-anchor="middle" x="1133" y="-99.8" font-family="Times,serif" font-size="14.00">SessionHoraireSalleUniqueConstraint</text>
</g>
<!-- SessionHoraireSalleUniqueConstraint&#45;&gt;GestionPfeModule -->
<g id="edge15" class="edge">
<title>SessionHoraireSalleUniqueConstraint&#45;&gt;GestionPfeModule</title>
<path fill="none" stroke="black" d="M1017.91,-116.39C1017.91,-123.09 1017.91,-130 1017.91,-130 1017.91,-130 812.73,-130 812.73,-130 812.73,-130 812.73,-151.95 812.73,-151.95"/>
<polygon fill="black" stroke="black" points="809.23,-151.95 812.73,-161.95 816.23,-151.95 809.23,-151.95"/>
</g>
<!-- SessionPfeService -->
<g id="node16" class="node">
<title>SessionPfeService</title>
<ellipse fill="#fdb462" stroke="black" cx="875" cy="-104" rx="82.24" ry="18"/>
<text text-anchor="middle" x="875" y="-99.8" font-family="Times,serif" font-size="14.00">SessionPfeService</text>
</g>
<!-- SessionPfeService&#45;&gt;GestionPfeModule -->
<g id="edge16" class="edge">
<title>SessionPfeService&#45;&gt;GestionPfeModule</title>
<path fill="none" stroke="black" d="M802.68,-112.72C802.68,-112.72 802.68,-151.88 802.68,-151.88"/>
<polygon fill="black" stroke="black" points="799.18,-151.88 802.68,-161.88 806.18,-151.88 799.18,-151.88"/>
</g>
<!-- SoutenanceService -->
<g id="node17" class="node">
<title>SoutenanceService</title>
<ellipse fill="#fdb462" stroke="black" cx="690" cy="-104" rx="84.51" ry="18"/>
<text text-anchor="middle" x="690" y="-99.8" font-family="Times,serif" font-size="14.00">SoutenanceService</text>
</g>
<!-- SoutenanceService&#45;&gt;GestionPfeModule -->
<g id="edge17" class="edge">
<title>SoutenanceService&#45;&gt;GestionPfeModule</title>
<path fill="none" stroke="black" d="M756.71,-115.21C756.71,-115.21 756.71,-151.96 756.71,-151.96"/>
<polygon fill="black" stroke="black" points="753.21,-151.96 756.71,-161.96 760.21,-151.96 753.21,-151.96"/>
</g>
<!-- SujetPfeService -->
<g id="node18" class="node">
<title>SujetPfeService</title>
<ellipse fill="#fdb462" stroke="black" cx="515" cy="-104" rx="72.93" ry="18"/>
<text text-anchor="middle" x="515" y="-99.8" font-family="Times,serif" font-size="14.00">SujetPfeService</text>
</g>
<!-- SujetPfeService&#45;&gt;GestionPfeModule -->
<g id="edge18" class="edge">
<title>SujetPfeService&#45;&gt;GestionPfeModule</title>
<path fill="none" stroke="black" d="M514.37,-122.05C514.37,-136.37 514.37,-154 514.37,-154 514.37,-154 738.92,-154 738.92,-154 738.92,-154 738.92,-154.79 738.92,-154.79"/>
<polygon fill="black" stroke="black" points="735.42,-151.94 738.92,-161.94 742.42,-151.94 735.42,-151.94"/>
</g>
</g>
</svg>
