<?xml version="1.0" encoding="UTF-8" standalone="no"?>
<!DOCTYPE svg PUBLIC "-//W3C//DTD SVG 1.1//EN"
 "http://www.w3.org/Graphics/SVG/1.1/DTD/svg11.dtd">
<!-- Generated by graphviz version 2.46.0 (20210119.1425)
 -->
<!-- Title: dependencies Pages: 1 -->
<svg width="504pt" height="211pt"
 viewBox="0.00 0.00 504.00 211.00" xmlns="http://www.w3.org/2000/svg" xmlns:xlink="http://www.w3.org/1999/xlink">
<g id="graph0" class="graph" transform="scale(1 1) rotate(0) translate(4 207)">
<title>dependencies</title>
<polygon fill="white" stroke="transparent" points="-4,4 -4,-207 500,-207 500,4 -4,4"/>
<text text-anchor="start" x="227.01" y="-42.4" font-family="sans-serif" font-weight="bold" font-size="14.00">Legend</text>
<polygon fill="#ffffb3" stroke="transparent" points="14,-10 14,-30 34,-30 34,-10 14,-10"/>
<text text-anchor="start" x="37.63" y="-15.4" font-family="sans-serif" font-size="14.00"> &#160;Declarations</text>
<polygon fill="#8dd3c7" stroke="transparent" points="127,-10 127,-30 147,-30 147,-10 127,-10"/>
<text text-anchor="start" x="150.73" y="-15.4" font-family="sans-serif" font-size="14.00"> &#160;Module</text>
<polygon fill="#80b1d3" stroke="transparent" points="213,-10 213,-30 233,-30 233,-10 213,-10"/>
<text text-anchor="start" x="236.78" y="-15.4" font-family="sans-serif" font-size="14.00"> &#160;Bootstrap</text>
<polygon fill="#fdb462" stroke="transparent" points="310,-10 310,-30 330,-30 330,-10 310,-10"/>
<text text-anchor="start" x="333.67" y="-15.4" font-family="sans-serif" font-size="14.00"> &#160;Providers</text>
<polygon fill="#fb8072" stroke="transparent" points="406,-10 406,-30 426,-30 426,-10 406,-10"/>
<text text-anchor="start" x="429.73" y="-15.4" font-family="sans-serif" font-size="14.00"> &#160;Exports</text>
<g id="clust1" class="cluster">
<title>cluster_EntrepriseModule</title>
<polygon fill="none" stroke="black" stroke-dasharray="1,5" points="43,-70 43,-195 453,-195 453,-70 43,-70"/>
</g>
<g id="clust6" class="cluster">
<title>cluster_EntrepriseModule_providers</title>
<polygon fill="none" stroke="black" points="51,-78 51,-130 445,-130 445,-78 51,-78"/>
</g>
<!-- EntrepriseService -->
<g id="node1" class="node">
<title>EntrepriseService</title>
<ellipse fill="#fdb462" stroke="black" cx="357" cy="-104" rx="79.85" ry="18"/>
<text text-anchor="middle" x="357" y="-99.8" font-family="Times,serif" font-size="14.00">EntrepriseService</text>
</g>
<!-- EntrepriseModule -->
<g id="node3" class="node">
<title>EntrepriseModule</title>
<polygon fill="#8dd3c7" stroke="black" points="316.58,-187 313.58,-191 292.58,-191 289.58,-187 199.42,-187 199.42,-151 316.58,-151 316.58,-187"/>
<text text-anchor="middle" x="258" y="-164.8" font-family="Times,serif" font-size="14.00">EntrepriseModule</text>
</g>
<!-- EntrepriseService&#45;&gt;EntrepriseModule -->
<g id="edge1" class="edge">
<title>EntrepriseService&#45;&gt;EntrepriseModule</title>
<path fill="none" stroke="black" d="M296.93,-115.92C296.93,-115.92 296.93,-140.77 296.93,-140.77"/>
<polygon fill="black" stroke="black" points="293.43,-140.77 296.93,-150.77 300.43,-140.77 293.43,-140.77"/>
</g>
<!-- InternshipOfferService -->
<g id="node2" class="node">
<title>InternshipOfferService</title>
<ellipse fill="#fdb462" stroke="black" cx="159" cy="-104" rx="100.09" ry="18"/>
<text text-anchor="middle" x="159" y="-99.8" font-family="Times,serif" font-size="14.00">InternshipOfferService</text>
</g>
<!-- InternshipOfferService&#45;&gt;EntrepriseModule -->
<g id="edge2" class="edge">
<title>InternshipOfferService&#45;&gt;EntrepriseModule</title>
<path fill="none" stroke="black" d="M229.25,-116.84C229.25,-116.84 229.25,-140.52 229.25,-140.52"/>
<polygon fill="black" stroke="black" points="225.75,-140.52 229.25,-150.52 232.75,-140.52 225.75,-140.52"/>
</g>
</g>
</svg>
